<?xml version="1.0" encoding="utf-8"?>
<!-- Generator: Adobe Illustrator 21.0.0, SVG Export Plug-In . SVG Version: 6.00 Build 0)  -->
<svg version="1.1" xmlns="http://www.w3.org/2000/svg" xmlns:xlink="http://www.w3.org/1999/xlink" x="0px" y="0px"
	 viewBox="0 0 512 512" style="enable-background:new 0 0 512 512;" xml:space="preserve">
<style type="text/css">
	.st0{display:none;}
	.st1{display:inline;fill:#222222;}
	.st2{fill:#2B9EEB;}
	.st3{fill:#336699;}
	.st4{fill:#660000;}
	.st5{fill:#EBBA16;}
	.st6{fill:#FFFFFF;}
	.st7{font-family:'RixVideoGameB';}
	.st8{font-size:265.4513px;}
	.st9{display:none;fill:none;}
</style>
<g id="NexT" xmlns:cc="http://creativecommons.org/ns#" xmlns:dc="http://purl.org/dc/elements/1.1/" xmlns:rdf="http://www.w3.org/1999/02/22-rdf-syntax-ns#" xmlns:svg="http://www.w3.org/2000/svg" class="st0">
	<path id="path3384" class="st1" d="M256.4,25.8l-200,115.5L56,371.5l199.6,114.7l200-115.5l0.4-230.2L256.4,25.8z M349,354.6
		l-18.4,10.7l-18.6-11l0,0L200,212v142.6l-18.4,10.7l-18.6-11v-197l18.5-10.6l18.5,10.8l0,0L312,302V157.4l18.5-10.6l18.5,10.8
		V354.6z"/>
</g>
<g id="레이어_2">
	<circle class="st2" cx="256.2" cy="256.1" r="199.1"/>
	<g>
		<path class="st3" d="M405.1,388.1c31.2-35.2,50.2-81.4,50.2-132c0-52.6-20.5-100.5-54-136.2c0,0-0.1-0.1-0.1-0.1
			c-34.9-37-83.7-60.8-138.1-62.6l-3.9-0.1c-1,0-2-0.1-3-0.1c-1,0-2,0-3,0.1l-3.9,0.1C195,59,146.1,82.8,111.2,119.8
			c0,0-0.1,0.1-0.1,0.1c0,0,0,0,0,0c-33.5,35.6-54,83.5-54,136.2c0,50.6,19,96.8,50.2,132c0.1,0.1,0.1,0.1,0.1,0.2
			c0.1,0.2,0.3,0.2,0.4,0.4c35.1,39.2,85.3,64.4,141.5,66.3l3.9,0.1c1,0,2,0,3,0c1,0,2,0,3-0.1l3.9-0.1h0
			c56.2-1.9,106.5-27.2,141.6-66.5c0.1-0.1,0.2-0.2,0.3-0.3C405,388.2,405,388.1,405.1,388.1L405.1,388.1z M71,263h82.4
			c0.8,29.1,6.5,57.4,16.6,83.9c-19.5,7.1-38.2,16.5-55.7,28.4C88.6,344.6,72.5,305.6,71,263L71,263z M118,132.7
			c17.1,11.1,35.3,20,54.2,26.7c-11.6,28.2-18,58.6-18.9,89.9H71C72.6,204.6,90.1,163.9,118,132.7L118,132.7z M441.4,249.2H359
			c-0.8-31.3-7.2-61.7-18.9-89.9c19-6.7,37.2-15.6,54.2-26.7C422.2,163.9,439.7,204.6,441.4,249.2L441.4,249.2z M249.3,159.7
			c-19.8-0.5-39.3-3.5-58.1-8.8c13.9-28.6,33.6-54.3,58.1-75.8V159.7z M249.3,173.5v75.8h-82.2c0.8-29.8,7.1-58.8,18.3-85.6
			C206.1,169.6,227.5,172.9,249.3,173.5L249.3,173.5z M263,173.5c21.8-0.6,43.2-3.9,63.9-9.9c11.2,26.8,17.5,55.8,18.3,85.6H263
			V173.5z M263,159.7V75.1c24.6,21.5,44.2,47.2,58.2,75.8C302.4,156.2,282.9,159.2,263,159.7L263,159.7z M334.5,146.7
			c-13.2-27.6-31.5-52.8-54.2-74.4c40.2,5.3,76.4,23.4,104.3,50.3C368.8,132.6,352,140.7,334.5,146.7L334.5,146.7z M177.9,146.7
			c-17.5-6-34.3-14.1-50.1-24.1c27.9-26.8,64-45,104.2-50.3C209.3,93.9,191,119.1,177.9,146.7L177.9,146.7z M167.1,263h82.2v68.9
			c-22.7,0.6-44.9,4.1-66.3,10.6C173.3,317.4,167.9,290.6,167.1,263L167.1,263z M249.3,345.6V437c-26.3-23-46.9-50.9-61-81.8
			C208,349.4,228.5,346.2,249.3,345.6L249.3,345.6z M263,437v-91.4c20.9,0.6,41.3,3.8,61,9.6C310,386.2,289.4,414.1,263,437L263,437
			z M263,331.9V263h82.2c-0.8,27.6-6.2,54.4-15.9,79.5C308,336,285.7,332.5,263,331.9L263,331.9z M359,263h82.4
			c-1.6,42.6-17.6,81.6-43.3,112.2c-17.5-11.8-36.2-21.3-55.7-28.4C352.5,320.3,358.2,292.1,359,263L359,263z M123.6,385.5
			c16.2-10.8,33.5-19.5,51.6-25.9c13.4,29.9,32.5,57.2,56.8,80.3C189.8,434.3,152,414.6,123.6,385.5L123.6,385.5z M280.3,439.8
			c24.3-23.1,43.4-50.3,56.8-80.3c18.1,6.5,35.4,15.2,51.6,25.9C360.4,414.6,322.6,434.3,280.3,439.8L280.3,439.8z M280.3,439.8"/>
	</g>
	<g>
		<path class="st4" d="M103.5,365.9l214.2-214.2l22.5,22.5L126.1,388.4L103.5,365.9z M103.5,365.9"/>
		<path class="st5" d="M318.1,131.3c-4.1,0-7.5-3.3-7.5-7.5V71.3c0-4.1,3.4-7.5,7.5-7.5c4.1,0,7.5,3.4,7.5,7.5v52.5
			C325.6,127.9,322.2,131.3,318.1,131.3L318.1,131.3z M318.1,131.3"/>
		<path class="st5" d="M318.1,280c-4.1,0-7.5-3.4-7.5-7.5v-52.5c0-4.1,3.4-7.5,7.5-7.5c4.1,0,7.5,3.4,7.5,7.5v52.5
			C325.6,276.6,322.2,280,318.1,280L318.1,280z M318.1,280"/>
		<path class="st5" d="M417.8,180.4h-52.6c-4.1,0-7.5-3.4-7.5-7.5c0-4.1,3.4-7.5,7.5-7.5h52.6c4.1,0,7.5,3.4,7.5,7.5
			C425.3,177.1,422,180.4,417.8,180.4L417.8,180.4z M417.8,180.4"/>
		<path class="st5" d="M271.3,180.4h-52.5c-4.1,0-7.5-3.4-7.5-7.5c0-4.1,3.4-7.5,7.5-7.5h52.5c4.1,0,7.5,3.4,7.5,7.5
			C278.8,177.1,275.5,180.4,271.3,180.4L271.3,180.4z M271.3,180.4"/>
		<path class="st5" d="M349.6,148.9c-1.9,0-3.8-0.7-5.3-2.2c-2.9-2.9-2.9-7.7,0-10.6l37.2-37.2c2.9-2.9,7.7-2.9,10.6,0
			c2.9,3,2.9,7.7,0,10.6l-37.2,37.2C353.4,148.2,351.5,148.9,349.6,148.9L349.6,148.9z M349.6,148.9"/>
		<path class="st5" d="M387.2,249.5c-1.9,0-3.8-0.7-5.3-2.2l-37.2-37.2c-2.9-2.9-2.9-7.7,0-10.6c2.9-2.9,7.7-2.9,10.6,0l37.2,37.2
			c2.9,2.9,2.9,7.7,0,10.6C391,248.8,389.1,249.5,387.2,249.5L387.2,249.5z M387.2,249.5"/>
		<path class="st5" d="M287.1,149.4c-1.9,0-3.8-0.7-5.3-2.2L244.6,110c-2.9-2.9-2.9-7.7,0-10.6c3-2.9,7.7-2.9,10.6,0l37.2,37.2
			c2.9,2.9,2.9,7.7,0,10.6C290.9,148.7,289,149.4,287.1,149.4L287.1,149.4z M287.1,149.4"/>
		<path class="st6" d="M340.5,174l-54,54L264,205.5l54-53.9L340.5,174z M340.5,174"/>
	</g>
	<text transform="matrix(1 0 0 1 256.1699 458.9149)" class="st6 st7 st8">0</text>
	<text transform="matrix(1 0 0 1 123.4468 275.5624)" class="st6 st7 st8">1</text>
	<circle class="st9" cx="256.2" cy="254.7" r="131.3"/>
</g>
</svg>
